<svg xmlns="http://www.w3.org/2000/svg" xmlns:xlink="http://www.w3.org/1999/xlink" width="25" height="25" viewBox="0 0 25 25">
  <defs>
    <clipPath id="clip-path">
      <rect id="Retângulo_29" data-name="Retângulo 29" width="25" height="25" transform="translate(9560 120)" fill="#ffd500"/>
    </clipPath>
  </defs>
  <g id="carrinho" transform="translate(-9560 -120)" clip-path="url(#clip-path)">
    <g id="carrinho-de-compras" transform="translate(9560.884 120)">
      <path id="Caminho_10" data-name="Caminho 10" d="M8.035,16.461H21.81a2.842,2.842,0,0,0,2.836-2.836V7.767a.065.065,0,0,0-.005-.031c0-.01-.005-.026-.005-.036s-.005-.021-.005-.031a.328.328,0,0,1-.01-.036c-.005-.01-.005-.021-.01-.031s-.005-.021-.01-.031a.25.25,0,0,1-.015-.036.112.112,0,0,0-.015-.026l-.015-.031c-.005-.01-.01-.015-.015-.026s-.015-.021-.021-.031A.09.09,0,0,0,24.5,7.4c-.005-.01-.015-.015-.021-.026s-.015-.015-.021-.026-.015-.015-.021-.021L24.41,7.3c-.01-.005-.015-.015-.026-.021s-.021-.015-.031-.021-.015-.01-.026-.015a.107.107,0,0,1-.031-.021l-.031-.015-.031-.015L24.2,7.176c-.01-.005-.021-.005-.031-.01a.1.1,0,0,0-.036-.01.222.222,0,0,1-.026-.005.113.113,0,0,0-.041-.005c-.005,0-.01-.005-.021-.005L6.592,4.731V2.3a.316.316,0,0,0-.005-.072A.039.039,0,0,0,6.581,2.2c0-.015-.005-.031-.005-.046s-.005-.026-.01-.041S6.561,2.1,6.561,2.09l-.015-.046c0-.005-.005-.015-.005-.021a.154.154,0,0,0-.021-.041c-.005-.005-.005-.015-.01-.021a.107.107,0,0,0-.021-.031c-.005-.01-.01-.015-.015-.026s-.01-.015-.015-.026-.015-.021-.021-.031l-.015-.015L6.391,1.8l-.015-.015a.223.223,0,0,0-.036-.031c-.005-.005-.015-.01-.021-.015s-.021-.015-.031-.026a.474.474,0,0,0-.041-.026c-.005-.005-.01-.005-.015-.01l-.067-.031L2.378.055a.694.694,0,1,0-.539,1.279L5.2,2.752v15.2a2.839,2.839,0,0,0,2.471,2.81,2.8,2.8,0,1,0,5.2,1.439,2.747,2.747,0,0,0-.385-1.413h6.238a2.761,2.761,0,0,0-.385,1.413,2.8,2.8,0,1,0,2.8-2.8H8.035a1.451,1.451,0,0,1-1.449-1.449V16.07A2.868,2.868,0,0,0,8.035,16.461Zm3.453,5.734a1.413,1.413,0,1,1-1.413-1.413A1.415,1.415,0,0,1,11.488,22.195Zm11.067,0a1.413,1.413,0,1,1-1.413-1.413A1.415,1.415,0,0,1,22.555,22.195Zm-.745-7.121H8.035a1.451,1.451,0,0,1-1.449-1.449v-7.5l16.673,2.3v5.195A1.452,1.452,0,0,1,21.81,15.073Z" transform="translate(-1.414 0)" fill="#ffd500"/>
    </g>
  </g>
</svg>
