<svg xmlns="http://www.w3.org/2000/svg" width="227" height="118" viewBox="0 0 227 118">
  <g id="logo1" transform="translate(-15442 -3235.333)">
    <ellipse id="Elipse_7" data-name="Elipse 7" cx="113.5" cy="59" rx="113.5" ry="59" transform="translate(15442 3235.333)"/>
    <g id="Caminho_10" data-name="Caminho 10" transform="translate(15450 3241)" fill="none">
      <path d="M106,0c58.542,0,106,23.8,106,53.167s-47.458,53.167-106,53.167S0,82.53,0,53.167,47.458,0,106,0Z" stroke="none"/>
      <path d="M 106 3.000007629394531 C 91.89891052246094 3.000007629394531 78.22653198242188 4.383735656738281 65.36259460449219 7.112770080566406 C 59.19635009765625 8.420913696289063 53.25285339355469 10.03874206542969 47.69717407226563 11.92132568359375 C 42.21476745605469 13.77906036376953 37.06526184082031 15.90956115722656 32.39170837402344 18.25370788574219 C 27.74993896484375 20.58188629150391 23.54423522949219 23.13741302490234 19.89143371582031 25.84932708740234 C 16.24897766113281 28.5535888671875 13.13076782226563 31.43235778808594 10.6234130859375 34.40567779541016 C 5.56488037109375 40.40432739257813 3 46.71635818481445 3 53.16650390625 C 3 59.61662292480469 5.56488037109375 65.92868041992188 10.6234130859375 71.92732238769531 C 13.13076782226563 74.90065002441406 16.24897766113281 77.7794189453125 19.89143371582031 80.48365020751953 C 23.54423522949219 83.19559478759766 27.74993896484375 85.75112152099609 32.39170837402344 88.07929992675781 C 37.06526184082031 90.42341613769531 42.21476745605469 92.55394744873047 47.69717407226563 94.41168212890625 C 53.25285339355469 96.29426574707031 59.19635009765625 97.91209411621094 65.36262512207031 99.22023773193359 C 78.22653198242188 101.9492721557617 91.89891052246094 103.3330078125 106 103.3330078125 C 120.1010894775391 103.3330078125 133.7734680175781 101.9492721557617 146.6373901367188 99.22023773193359 C 152.8036499023438 97.91209411621094 158.7471466064453 96.29426574707031 164.3028259277344 94.41168212890625 C 169.7852325439453 92.55394744873047 174.9347381591797 90.42341613769531 179.6082916259766 88.07929992675781 C 184.2500610351563 85.75112152099609 188.4557647705078 83.19559478759766 192.1085510253906 80.48365020751953 C 195.7510375976563 77.7794189453125 198.8692321777344 74.90065002441406 201.3765869140625 71.92732238769531 C 206.4351196289063 65.92868041992188 209 59.61662292480469 209 53.16650390625 C 209 46.71635818481445 206.4351196289063 40.40432739257813 201.3765869140625 34.40567779541016 C 198.8692321777344 31.43235778808594 195.7510375976563 28.5535888671875 192.1085510253906 25.84932708740234 C 188.4557647705078 23.13741302490234 184.2500610351563 20.58188629150391 179.6082916259766 18.25370788574219 C 174.9347381591797 15.90956115722656 169.7852325439453 13.77906036376953 164.3028259277344 11.92132568359375 C 158.7471466064453 10.03874206542969 152.8036499023438 8.420913696289063 146.6374206542969 7.112770080566406 C 133.7734680175781 4.383735656738281 120.1010894775391 3.000007629394531 106 3.000007629394531 M 106 7.62939453125e-06 C 164.5421752929688 7.62939453125e-06 212 23.80344390869141 212 53.16650390625 C 212 82.52953338623047 164.5421752929688 106.3330001831055 106 106.3330001831055 C 47.45782470703125 106.3330001831055 0 82.52953338623047 0 53.16650390625 C 0 23.80344390869141 47.45782470703125 7.62939453125e-06 106 7.62939453125e-06 Z" stroke="none" fill="#ffd500"/>
    </g>
    <text id="Tex-Mex" transform="translate(15518 3323.333)" fill="#fff" font-size="20" font-family="Nunito-Regular, Nunito"><tspan x="0" y="0">Tex-Mex</tspan></text>
    <text id="La_Chica_Mexican" data-name="La Chica Mexican" transform="translate(15470 3293.333)" fill="#fff" font-size="30" font-family="RougeScript-Regular, Rouge Script"><tspan x="0" y="0">La Chica Mexican</tspan></text>
  </g>
</svg>
